<?xml version="1.0" encoding="UTF-8"?>
<!DOCTYPE svg PUBLIC "-//W3C//DTD SVG 1.1//EN" "http://www.w3.org/Graphics/SVG/1.1/DTD/svg11.dtd">
<!-- Creator: CorelDRAW -->
<svg xmlns="http://www.w3.org/2000/svg" xml:space="preserve" width="215.9mm" height="215.9mm" version="1.1" style="shape-rendering:geometricPrecision; text-rendering:geometricPrecision; image-rendering:optimizeQuality; fill-rule:evenodd; clip-rule:evenodd"
viewBox="0 0 21590 21590"
 xmlns:xlink="http://www.w3.org/1999/xlink"
 xmlns:xodm="http://www.corel.com/coreldraw/odm/2003">
 <defs>
  <style type="text/css">
   <![CDATA[
    .fil0 {fill:#3A9FA9}
   ]]>
  </style>
 </defs>
 <g id="Capa_x0020_1">
  <metadata id="CorelCorpID_0Corel-Layer"/>
  <path class="fil0" d="M2102.95 17016.05c58.52,34.98 244.24,298.72 292.38,359.92l424.18 514.22c48.75,62.29 99.97,97.5 154.35,158.29 394.21,440.65 851.76,847.34 1313.16,1211.73l351.34 285.31c69.59,15.25 619.33,393.07 690.89,437.39 3007.63,1862.68 6956.3,2041.87 10143.42,450.75 523.68,-261.44 1002.76,-551.6 1455.45,-866.91 321.25,-223.76 1036.9,-780.91 1266.16,-1061.79 -31.69,-92.56 -688.3,-757.71 -806.04,-832.13l-877.48 733.75c-2462.15,1911.69 -5914.07,2428.29 -8831.81,1386.03 -1233.74,-440.71 -2576.31,-1270.5 -3471.32,-2154.67l-390.67 -413.49c-72.57,-85.26 -123.87,-116.33 -196.15,-206.34 -58.36,-72.67 -115.31,-143.94 -179.58,-222.02 -371.54,-451.48 -677.79,-901.98 -971.57,-1441.32 -290.34,-533.01 -884,-1848.59 -896.46,-2365.78l1524.97 1.22c99.89,339.37 175.76,589 309.05,904.89 127.55,302.26 245.56,544.06 397.26,811.75 457.13,806.69 929.24,1389.7 1610.45,2032.11 1625.47,1532.89 4044.59,2354.36 6381.26,2060.56 1007.84,-126.73 2284.34,-542.07 3135.54,-1103.3 90.27,-59.51 307.06,-213.85 384.09,-232.05 81.31,-122.73 902.81,-631.59 1009.75,-875.58 -53.3,-22.42 -293.7,-289.18 -416.79,-403.95l-402.83 -417.51c-74.91,45.8 -221.01,194.49 -308.67,268.81 -280.92,238.18 -740.33,549.62 -1050.5,733.96 -1712.25,1017.68 -4013.62,1168.16 -5807.26,411.46 -649.45,-274 -973.36,-455.51 -1536.29,-852.61 -381.73,-269.26 -981.38,-815.8 -1228.45,-1160.83l-259.79 -319.88c-255.96,-340.52 -503.84,-736.86 -685.44,-1124.87 -262.32,-560.45 -427.37,-1088.22 -535.5,-1698.63 -2.88,-16.25 -6.61,-41.87 -11.01,-56.48l-30.6 -66.05c-101.17,-55.23 -3435.35,-13.42 -3868.93,-15.87 -32.3,227.7 184.53,1248.75 252.89,1497.16 302.84,1100.54 701.86,2138.45 1316.47,3091.69 66.55,103.23 105.32,169.54 178.77,268.42 57.17,76.96 155.3,188.66 171.31,272.64z"/>
  <path class="fil0" d="M13619.21 13927.7l-39.26 0.69 -104.67 63.75c-581.92,450.5 -875.5,646.34 -1678.77,863.5 -758.89,205.17 -1620.65,144.08 -2329.36,-105.21 -2939.94,-1034.13 -3741.69,-4686.84 -1619.99,-6857.13 401.99,-411.2 952.02,-808.39 1654.47,-1044.23 659.56,-221.42 1658.29,-300.76 2335.98,-76.97 376,64.24 1003.77,368.29 1309.65,589.14 90.06,65.02 78.42,83.73 164.01,96.67l19.15 -0.11c32.8,-7.27 22.17,-1.82 55.89,-24.54 22.16,-14.94 38.83,-33.94 57.13,-53.63 172.05,-185.12 647.55,-622.89 707.6,-738.15 -80.86,-65.72 -167.06,-140.22 -259.15,-208.64 -85.24,-63.33 -206.41,-132.2 -300.89,-189.01 -3740.33,-2249.03 -8281.11,566.31 -8116.38,4828.48 52.69,1363.31 652.71,2547 1446,3393.14 516.4,550.81 996.93,881.74 1687.51,1217.12 1449.77,704.07 3231.38,616.37 4690.95,-140.87 341.43,-177.14 957.84,-603.79 1127.26,-820.26 -71.59,-116.05 -287.01,-306.39 -396.98,-410.11l-298.12 -305.78c-50.16,-45.88 -57.43,-59.86 -112.03,-77.85z"/>
  <path class="fil0" d="M18110.34 4723.72c33.35,59.3 604.01,769.55 844.24,1191.49 840.04,1475.4 1356.73,3003.63 1359.59,4821.23 1.97,1256.53 -221.79,2451.18 -632.5,3492.13 -346.88,879.15 -828.37,1720.74 -1407.24,2458.18l-119.72 161.52c80.14,144 709.18,754.25 816.27,829.54 228.83,-173.63 791.83,-1026.39 970.16,-1312.24 951.93,-1525.96 1523.71,-3466.85 1555.44,-5360.48 24.57,-1465.79 -258.92,-2724.67 -680.31,-3932.3 -252.81,-724.52 -741.77,-1658.15 -1178.61,-2265.6l-474.5 -681.98c-97.05,-68.56 -153.52,-147.11 -229.73,-245.99 -42.7,-55.39 -52.44,-64.65 -104.1,-118.99 -53.11,-55.85 -54.54,-79.87 -125.86,-110.87l-799.11 795.88c37.45,103.29 135.19,185.34 205.98,278.48z"/>
  <path class="fil0" d="M12741.63 8054.38l-49.4 69.24c-22.32,23.39 -34.11,32.62 -57.05,55.66 -46.31,46.51 -76.43,76.34 -123.24,122.61 -84.22,83.25 -150.82,186.21 -250.9,244.58 -225.91,-115.17 -365.85,-220.03 -652.02,-313.74 -761.21,-249.25 -1649.21,-85.05 -2268.29,308.58 -637.24,405.18 -1337.17,1331.81 -1211.34,2512.6 221.75,2080.95 2593.69,3271.2 4399.16,1791.37 130.62,71.7 405.97,394.63 543.43,524.63 78.58,74.3 485.08,438.03 507.97,558.48l39.26 -0.69c28.92,-128.14 41.01,-58.9 180.87,-212.87 166.34,-183.11 297.41,-313.97 438.56,-522.46 60.96,-90.05 23.78,-77.55 117.76,-102.87l-11.4 -44.98c-120.05,-25.06 -379.83,-341.45 -463.16,-420.8 -157.7,-150.16 -284.99,-277.81 -437.9,-433.58l-862.67 -874.03c-329.27,118.86 -714.58,1172.32 -1836.55,1125.75 -1810.11,-75.13 -2173.14,-2612.89 -428.87,-3206.14 940.97,-320.03 1665.86,323.6 1958.46,835.09 96.28,-42.55 796.63,-762.56 929.19,-895.25l907.79 -898.55c289.73,359.74 459.01,845.34 543.52,932 43.87,-137.92 47.34,-91.62 -6.58,-211.58 -45.23,-100.63 -222.24,-496.86 -285.51,-571.75l-34.52 -36.43c-3.56,-3.28 -8.58,-7.6 -12.21,-10.66 -19.52,-16.48 -11.57,-9.57 -37.63,-27.32 -9.35,-6.36 -52.3,-25.55 -50.71,-59.15 2.26,-47.92 43.7,-100.83 78.88,-136.33 79.12,-79.83 73.01,-62.37 85.8,-167.92 -106.02,55.61 -162.28,202.71 -303.33,261.79 -209.07,-251.99 -396.48,-483.18 -662.16,-677.07 -80.99,-59.1 -75.67,-37.41 -96.42,-114.79l-19.15 0.11c-17.22,88.96 -1.19,46.03 -63.31,106.12 -31.37,30.34 -37.35,31.12 -68.54,64.98l-285.99 294.73c-78.05,75.7 -66.82,87.45 -151.8,130.64z"/>
  <path class="fil0" d="M16006.04 6342.48c40.42,112.93 243.51,325.82 326.2,438.74 1550.86,2118.03 1733.53,5060.25 435.42,7362.23 -78.66,139.49 -165.96,290.58 -254.37,416.67 -56.09,80 -258.42,339.93 -279.59,407.59 40.42,60.43 780.22,803.51 851.87,834.98 590.67,-821.53 835.19,-1134.51 1225.08,-2151.61 338.72,-883.65 516.01,-1829.98 513.94,-2869.86 -3.05,-1535.58 -449.32,-2943.3 -1202.83,-4194.96 -130.85,-217.38 -647.93,-949.22 -790.83,-1035.25 -130.57,49.09 -334.66,300.04 -425.21,392.97 -73.09,75.01 -133.17,115.36 -204.02,197.08 -61.16,70.57 -121.68,142.65 -195.66,201.42z"/>
  <path class="fil0" d="M14392.33 7987.87c-12.79,105.55 -6.68,88.09 -85.8,167.92 -35.18,35.5 -76.62,88.41 -78.88,136.33 -1.59,33.6 41.36,52.79 50.71,59.15 26.06,17.75 18.11,10.84 37.63,27.32 3.63,3.06 8.65,7.38 12.21,10.66l34.52 36.43c63.27,74.89 240.28,471.12 285.51,571.75 53.92,119.96 50.45,73.66 6.58,211.58 -5.99,76.48 200.9,574.79 257.6,938.88 131.05,841.71 8.67,1752.72 -377.65,2513.13 -39.48,77.71 -178.37,314.66 -189.76,383.5l11.4 44.98c4.72,54.88 314.82,345.22 376.99,402.89 92.05,85.38 328.44,338.34 425.64,381.91 251.7,-211.9 612.99,-1077.92 725.47,-1424.36 396.52,-1221.28 324,-2485.01 -146.42,-3659.85 -161.31,-402.87 -440.78,-942.74 -728.6,-1281.27 -59.14,-69.58 -24.97,-46.84 -106.44,-73.98 -89.44,127.07 -468.77,452.72 -510.71,553.03z"/>
  <path class="fil0" d="M1563.1 8628.42c79.75,-650.23 563.77,-1712.39 859.92,-2289.43 509.77,-993.3 1276.61,-1911.86 2093.14,-2663.9l428.93 -352.96c145.82,-119.12 292.15,-226.38 457.99,-344.47 2831.35,-2016.25 6758.51,-2299.73 9847.33,-591.77 619.72,342.68 871.29,527.76 1425.67,939.75 135.19,100.46 319.25,290.33 444.65,353.73 73.63,-50.05 776.51,-757.27 809.21,-823.38 -86.46,-153.95 -824.46,-691.55 -1040.43,-844 -390.18,-275.44 -704.55,-461.35 -1161.21,-714.72 -758.95,-421.06 -1811.85,-813.84 -2762.65,-1005.53 -2740.27,-552.46 -5453.49,-23.65 -7654.18,1337.68 -519.5,321.35 -669.12,464.14 -1115.22,782.81l-988.02 889.18c-295.59,322.29 -600.66,637.13 -880.34,1019.81 -884.89,1210.83 -1467.27,2296.02 -1857.99,3799.84 -100.88,388.29 -296.8,1198.38 -286.73,1602.66l3893.06 3.26c80.52,-317.02 123.84,-627.76 208.59,-934.59 218.7,-791.74 743.62,-1701.16 1208.83,-2277.98l267.15 -313.77c100.45,-130.41 453.65,-458.47 585.78,-574.69 2305.98,-2028.3 5630.26,-2221.48 8220.25,-539.98 240.04,155.83 574.36,464.4 696.8,492.29 50.66,-80.57 122.72,-122.93 181.16,-195.6 68.13,-84.7 125.91,-144.2 192.56,-210.53 87.28,-86.87 347.01,-312.38 402.09,-413.18 -60.52,-106.85 -534.31,-456.66 -665.17,-553.07 -209.03,-154.03 -507.19,-322.61 -764.96,-463.62 -2689.74,-1471.66 -6017.39,-1235.91 -8475.49,548.52 -672.8,488.42 -1352.2,1171.29 -1829.38,1836.99 -177.03,246.97 -863.29,1332.04 -866.51,1580l-66.39 104.43c-156.84,377.21 -158.13,467.73 -275.92,815.11l-1532.52 1.11z"/>
 </g>
</svg>
